# xmcd
#
# Track frame offsets:
#	150
#	14925
#	31275
#	48750
#	62026
#	84001
#	105526
#	122926
#	141078
#	158703
#	176178
#	198003
#
# Disc length: 2863 seconds
#
# Revision: 0
# Processed by: cddbd v1.5.2PL0 Copyright (c) Steve Scherf et al.
# Submitted via: audiograbber 1.83.01
#
DISCID=9a0b2d0c
DTITLE=Lady Antebellum - Own The Night
DYEAR=2011
DGENRE=Country
TTITLE0=We Owned The Night
TTITLE1=Just A Kiss
TTITLE2=Dancin' Away With My Heart
TTITLE3=Friday Night
TTITLE4=When You Were Mine
TTITLE5=Cold As Stone
TTITLE6=Singing Me Home
TTITLE7=Wanted You More
TTITLE8=As You Turn Away
TTITLE9=Love I've Found In You
TTITLE10=Somewhere Love Remains
TTITLE11=Heart Of The World
EXTD=
EXTT0=
EXTT1=
EXTT2=
EXTT3=
EXTT4=
EXTT5=
EXTT6=
EXTT7=
EXTT8=
EXTT9=
EXTT10=
EXTT11=
PLAYORDER=
